<?xml version="1.0" encoding="UTF-8" standalone="no"?>
<svg
   version="1.1"
   id="Layer_1"
   x="0px"
   y="0px"
   width="881.99451"
   viewBox="0 0 881.99451 121.66696"
   enable-background="new 0 0 1024 1024"
   xml:space="preserve"
   sodipodi:docname="file.svg"
   inkscape:version="1.4.2 (ebf0e940d0, 2025-05-08)"
   inkscape:export-filename="Astrolavos.svg"
   inkscape:export-xdpi="150"
   inkscape:export-ydpi="150"
   height="121.66696"
   xmlns:inkscape="http://www.inkscape.org/namespaces/inkscape"
   xmlns:sodipodi="http://sodipodi.sourceforge.net/DTD/sodipodi-0.dtd"
   xmlns="http://www.w3.org/2000/svg"
   xmlns:svg="http://www.w3.org/2000/svg"><defs
   id="defs18" /><sodipodi:namedview
   id="namedview18"
   pagecolor="#ffffff"
   bordercolor="#000000"
   borderopacity="0.25"
   inkscape:showpageshadow="2"
   inkscape:pageopacity="0.0"
   inkscape:pagecheckerboard="0"
   inkscape:deskcolor="#d1d1d1"
   inkscape:zoom="0.52930083"
   inkscape:cx="358.96411"
   inkscape:cy="442.09264"
   inkscape:window-width="1440"
   inkscape:window-height="831"
   inkscape:window-x="0"
   inkscape:window-y="0"
   inkscape:window-maximized="1"
   inkscape:current-layer="Layer_1"
   inkscape:export-bgcolor="#ffffff00"><inkscape:page
     x="0"
     y="0"
     width="881.99451"
     height="121.66696"
     id="page2"
     margin="0"
     bleed="0" /></sodipodi:namedview>

















<g
   id="g18"
   inkscape:label="All"
   inkscape:export-filename="Astrolavos.svg"
   inkscape:export-xdpi="96"
   inkscape:export-ydpi="96"
   transform="translate(-79.250099,-444.48726)"><g
     id="g19"
     style="fill:#535d6c"
     inkscape:label="Letters"
     inkscape:export-filename="g20.svg"
     inkscape:export-xdpi="96"
     inkscape:export-ydpi="96"><path
       fill="#020202"
       opacity="1"
       stroke="none"
       d="m 883.01099,503.91687 c -0.0526,22.38562 -11.49451,38.36432 -32.23029,42.42798 -24.5954,4.82001 -46.59912,-7.383 -50.85791,-34.7767 -1.99084,-12.80527 -1.18408,-25.20453 5.35516,-36.48676 8.59186,-14.82361 22.37506,-20.27792 38.97529,-19.54718 23.38403,1.02939 39.16491,19.82376 38.76324,42.90167 -0.029,1.66535 -0.003,3.33158 -0.005,5.48099 m -24.12079,23.54431 c 11.24341,-11.78558 11.62652,-25.96286 7.29522,-40.18017 -6.03332,-19.80445 -30.24285,-24.76062 -44.33801,-9.6283 -7.45416,8.00259 -8.59112,17.99158 -7.74103,28.19492 0.90223,10.82894 4.95905,20.12167 15.48737,25.21768 10.22559,4.94952 19.77411,3.55658 29.29645,-3.60413 z"
       id="path3"
       inkscape:label="O"
       style="fill:#535d6c" /><path
       fill="#010101"
       opacity="1"
       stroke="none"
       d="m 401.3602,546.00134 c -2.0817,-0.98779 -4.39658,-1.5805 -5.23425,-3.02807 -5.34818,-9.24195 -10.26313,-18.73462 -15.61402,-27.97492 -0.83597,-1.44366 -3.11517,-2.73248 -4.82098,-2.86285 -4.96436,-0.37943 -9.97641,-0.13465 -15.36115,-0.13465 0,11.12677 0,22.19703 0,33.63343 -4.91534,0 -9.45337,0 -14.26034,0 0,-29.33356 0,-58.71903 0,-89.40509 15.27325,0.8291 30.7518,0.67593 45.90683,2.81497 11.5524,1.63052 19.09448,11.5459 19.98596,22.17355 1.07757,12.8465 -4.43784,23.92423 -15.7095,28.03348 -0.75959,0.27692 -1.44309,0.76233 -2.53565,1.35269 6.65476,11.65381 13.28211,23.25958 20.21326,35.39734 -4.32001,0 -8.22016,0 -12.57016,1.2e-4 M 360.0004,490.474 c 0,2.90155 0,5.80313 0,8.65863 8.41095,0 16.07681,0.14859 23.73425,-0.0421 7.53928,-0.1878 12.77075,-5.09399 13.26181,-12.00296 0.65802,-9.25714 -3.59027,-16.19381 -11.48956,-16.84973 -8.37177,-0.69516 -16.84604,-0.15609 -25.50678,-0.15609 0,6.78372 0,13.09002 2.8e-4,20.39227 z"
       id="path4"
       inkscape:label="R"
       style="fill:#535d6c" /><path
       fill="#020202"
       opacity="1"
       stroke="none"
       d="m 689.80603,457.75958 c 10.66998,29.43729 21.19507,58.46979 31.88062,87.94477 -5.41919,0 -10.28791,0 -15.37366,0 -2.04999,-5.64802 -4.3739,-11.40217 -6.17383,-17.3158 -0.76514,-2.51373 -1.69379,-3.47986 -4.35339,-3.44244 -9.81763,0.13812 -19.64026,0.15881 -29.45679,-0.0133 -2.68952,-0.0471 -3.63245,1.02063 -4.39349,3.3847 -1.89869,5.89801 -4.11048,11.69513 -6.20978,17.56971 -4.95569,0 -9.7638,0 -15.28375,0 3.58929,-9.78138 7.10662,-19.22406 10.52154,-28.70362 6.76074,-18.76751 13.50995,-37.53946 20.14471,-56.35162 1.01557,-2.87943 2.3545,-4.2402 5.63202,-3.9097 4.27796,0.43143 8.61133,0.31391 13.0658,0.83731 m -9.29657,55.24024 c 4.719,0 9.43799,0 14.45221,0 -4.67682,-13.15406 -9.15179,-25.74063 -13.8905,-39.06894 -4.75995,13.5683 -9.18024,26.16848 -13.70581,39.06888 4.51605,0 8.33636,0 13.1441,6e-5 z"
       id="path5"
       inkscape:label="A2"
       style="fill:#535d6c" /><path
       fill="#020202"
       opacity="1"
       stroke="none"
       d="m 118.00377,525.00183 c -5.73938,0.24561 -12.18418,-1.26855 -15.86807,1.2522 -3.402897,2.32843 -3.849735,8.98096 -5.590854,13.73181 -0.715958,1.95361 -1.411934,3.91467 -2.127602,5.90173 -5.020935,0 -9.834084,0 -15.167145,0 10.775742,-29.62249 21.480881,-59.0509 32.334661,-88.88794 4.6168,0 9.43086,-0.13263 14.22719,0.10007 1.09847,0.0533 2.74838,1.13977 3.11229,2.13004 10.54468,28.69476 20.95799,57.4378 31.5247,86.53735 -5.23091,0 -9.98047,0 -15.17997,0 -2.00811,-5.54669 -4.4316,-11.25012 -6.0719,-17.17053 -0.87996,-3.17609 -2.37136,-3.74481 -5.21201,-3.64649 -5.15527,0.17853 -10.32113,0.0514 -15.98129,0.0518 m 6.68135,-38.13132 c -1.53163,-4.08139 -3.06326,-8.16278 -4.813,-12.82534 -4.73813,13.47351 -9.16945,26.07452 -13.64199,38.79272 9.35974,0 18.11396,0 27.4005,0 -2.95882,-8.6109 -5.81277,-16.9166 -8.94551,-25.96738 z"
       id="path6"
       inkscape:label="A1"
       style="fill:#535d6c" /><path
       fill="#030303"
       opacity="1"
       stroke="none"
       d="m 197.748,470.33124 c -8.6552,6.7283 -7.76617,16.27725 1.95761,20.33398 6.47177,2.70005 13.48651,4.06641 20.11617,6.42841 8.41856,2.99933 16.38193,7.04858 19.07054,16.47149 4.27884,14.99622 -2.92607,30.75495 -22.69751,33.32337 -8.53864,1.10931 -17.14101,0.68951 -25.41506,-2.68122 -9.24247,-3.76519 -13.72486,-10.94439 -15.38819,-20.26556 -0.14574,-0.81665 1.25735,-2.6048 2.1764,-2.79309 3.53679,-0.72473 7.16934,-0.98218 10.71303,-1.40747 4.93167,13.06049 14.84763,18.05853 28.33382,14.09338 4.46696,-1.31335 7.93144,-4.14666 8.58297,-9.26879 0.65813,-5.17383 -0.44065,-9.94269 -5.35786,-12.32789 -5.24585,-2.54452 -10.92691,-4.19024 -16.41309,-6.24145 -4.74478,-1.77399 -9.64891,-3.22409 -14.18605,-5.42789 -7.44462,-3.61612 -12.03924,-9.3262 -12.37985,-18.12692 -0.38165,-9.86145 3.09015,-17.68356 11.77261,-22.36051 11.10131,-5.97985 22.87816,-6.08596 34.49453,-1.56097 8.75874,3.41184 13.05374,10.65735 14.79969,20.15479 -3.95967,0.87329 -8.02778,1.7705 -12.01159,2.6491 -7.96602,-12.6058 -15.69484,-15.66803 -28.16817,-10.99276 z"
       id="path7"
       inkscape:label="S1"
       style="fill:#535d6c" /><path
       fill="#020202"
       opacity="1"
       stroke="none"
       d="m 934.94946,499.01953 c 4.94794,1.85141 9.67731,3.31729 13.99042,5.57758 9.84088,5.15704 13.31256,13.73462 12.05902,24.48181 -1.09582,9.39429 -6.13611,16.14599 -14.80823,19.45727 -11.7146,4.47303 -23.6856,4.0539 -35.18975,-0.9472 -7.97608,-3.46729 -12.13886,-10.28131 -13.94452,-18.59131 -0.50122,-2.30658 0.23217,-3.94226 2.96362,-3.9873 0.99573,-0.0164 2.0744,0.1333 2.97143,-0.19092 4.70282,-1.69977 7.44214,-1.32215 9.34632,4.49261 2.40796,7.35285 12.87762,11.40088 21.91247,9.15497 3.77552,-0.93854 8.15076,-2.64532 10.50257,-5.46374 4.80529,-5.75867 2.557,-14.07898 -4.63037,-17.42414 -6.77765,-3.15445 -14.16687,-4.97064 -21.18958,-7.63269 -3.63666,-1.37848 -7.17328,-3.11734 -10.56256,-5.03396 -11.58704,-6.55243 -12.84424,-22.85035 -5.25964,-32.45432 11.01941,-13.95325 37.77917,-15.13833 49.64972,-1.92319 3.29895,3.67264 4.87481,8.89313 7.49456,13.88636 -4.46466,1.06567 -7.4461,2.04113 -10.49719,2.37094 -1.1607,0.12539 -3.35034,-1.00617 -3.59662,-1.94968 -2.76233,-10.582 -17.99463,-12.65204 -26.45807,-8.75504 -8.15606,3.75553 -9.19622,13.96137 -1.47155,18.55713 4.94561,2.94236 10.84094,4.2883 16.71795,6.37482 z"
       id="path8"
       inkscape:label="S2"
       style="fill:#535d6c" /><path
       fill="#020202"
       opacity="1"
       stroke="none"
       d="m 748.04553,507.89777 c 2.08014,6.91497 4.11414,13.42926 6.16748,20.00549 2.55896,-8.05725 5.12995,-16.32016 7.80817,-24.54816 4.61218,-14.16961 9.41846,-28.27792 13.84326,-42.50531 0.97772,-3.14371 2.39636,-4.11273 5.4754,-3.90466 3.46698,0.23431 6.96198,0.0539 11.04071,0.0539 -4.49456,13.44294 -8.86254,26.43515 -13.18145,39.44367 -5.05231,15.21725 -10.16339,30.41665 -14.99817,45.70303 -0.8902,2.81476 -1.82691,4.15033 -4.96399,3.92249 -4.63336,-0.33661 -10.48352,1.43237 -13.61066,-0.79322 -3.00915,-2.14166 -3.23828,-8.21344 -4.65076,-12.57073 -7.87182,-24.28422 -15.73535,-48.57111 -23.58166,-72.86353 -0.24597,-0.76157 -0.27417,-1.59348 -0.4425,-2.63086 4.97576,0 9.75311,0 14.76794,0 5.41028,16.71173 10.84515,33.49942 16.32623,50.68787 z"
       id="path9"
       inkscape:label="V"
       style="fill:#535d6c" /><path
       fill="#050505"
       opacity="1"
       stroke="none"
       d="m 282.11475,493 c 7.6e-4,-7.80771 7.6e-4,-15.11539 7.6e-4,-22.88031 -8.31696,0 -16.56342,0 -24.94461,0 -0.47849,-4.492 -0.91001,-8.54312 -1.37219,-12.8822 22.50613,0 44.55578,0 66.91693,0 0,4.1304 0,8.19412 0,12.7366 -8.50205,0 -17.06287,0 -25.93451,0 0,25.50961 0,50.55045 0,75.81094 -4.90845,0 -9.49729,0 -14.66718,0 0,-17.46905 0,-34.87704 8e-4,-52.78503 z"
       id="path10"
       style="fill:#535d6c"
       inkscape:label="T" /><path
       fill="#010101"
       opacity="1"
       stroke="none"
       d="m 575.99939,524.99988 c -6e-5,-22.78522 -6e-5,-45.07041 -6e-5,-67.67716 4.70892,0 9.27118,0 14.20825,0 0,25.05524 0,50.21585 0,75.63065 12.28766,0 24.21301,0 36.22345,0 0,4.43835 0,8.60705 0,12.90466 -17.00476,0 -33.44006,0 -50.43164,0 0,-6.84314 0,-13.60065 0,-20.85815 z"
       id="path11"
       inkscape:label="L"
       style="fill:#535d6c" /></g><g
     id="g20"
     inkscape:label="Compass"
     style="fill:#008080"
     inkscape:export-filename="g20.svg"
     inkscape:export-xdpi="96"
     inkscape:export-ydpi="96"><path
       fill="#FCFCFC"
       opacity="1"
       stroke="none"
       d="m 460.2417,472.25906 c 9.08105,-9.80777 20.23816,-14.56457 32.2973,-15.89831 1.68677,2.03317 3.19165,3.84717 4.69656,5.66113 1.26682,-1.84332 2.53364,-3.68664 3.99219,-5.80896 29.23972,3.22675 44.94065,29.14182 44.51944,44.44904 -2.16168,1.59607 -3.85779,2.84835 -5.55389,4.10067 1.77173,1.39447 3.54346,2.78891 5.6496,4.44657 -0.2837,22.15085 -23.12031,45.02066 -44.59403,44.66946 -1.41083,-2.16467 -2.61221,-4.00806 -3.81357,-5.85144 -1.48437,1.58673 -2.96872,3.17346 -5.36389,5.73383 -14.03711,1.26403 -41.78531,-14.40015 -44.80786,-44.39417 2.15231,-1.86984 3.93332,-3.41711 5.71432,-4.96441 -1.78628,-1.16163 -3.57257,-2.32328 -5.70517,-3.71009 1.21485,-10.35928 5.06748,-20.10287 12.969,-28.43332 m 29.58584,51.06369 c 5.63627,-3.92334 12.92905,-6.7088 16.56717,-12.00479 7.79792,-11.35132 13.70844,-23.99911 20.99311,-37.20605 -12.20124,6.97119 -23.36173,13.20987 -34.34821,19.74133 -2.19232,1.30335 -4.22912,3.44275 -5.46826,5.67847 -6.40802,11.56155 -12.53357,23.27963 -19.26141,35.8873 7.57867,-4.22998 14.24234,-7.94922 21.5176,-12.09626 z"
       id="path12"
       inkscape:label="Compass FIll"
       style="fill:none" /><path
       fill="#FCFCFC"
       opacity="1"
       stroke="none"
       d="m 500.63348,503.21057 c 1.94455,2.9324 1.80054,5.5701 -1.13351,6.83298 -1.60312,0.68994 -4.83365,0.59991 -5.57245,-0.41635 -1.07043,-1.47238 -0.54901,-4.10208 -0.70663,-6.2381 2.3713,-0.1481 4.74264,-0.29617 7.41259,-0.17853 z"
       id="path18"
       inkscape:label="Compass Dot"
       style="fill:none" /><g
       id="g21"
       style="fill:#008080"
       inkscape:label="Compass Graphic"><path
         fill="#030303"
         opacity="1"
         stroke="none"
         d="m 513.12048,446.89578 c 24.22003,6.02274 46.40717,30.15915 44.8703,60.62195 -1.26727,25.12119 -16.78485,48.9202 -44.93603,56.3931 -35.61176,9.45337 -69.84671,-11.79718 -76.66687,-48.17212 -6.23087,-33.23221 14.94342,-62.54648 46.36639,-69.66812 9.93744,-2.2522 20.04038,-2.20932 30.36621,0.82519 m -53.12777,25.61664 c -7.65253,8.07709 -11.50516,17.82068 -12.72001,28.17996 2.1326,1.38681 3.91889,2.54846 5.70517,3.71012 -1.781,1.54727 -3.56201,3.09454 -5.71432,4.96438 3.02255,29.99402 30.77075,45.6582 44.80786,44.39417 2.39517,-2.56037 3.87952,-4.1471 5.36386,-5.73383 1.20139,1.84338 2.40277,3.68677 3.8136,5.85144 21.47372,0.3512 44.31033,-22.51861 44.59403,-44.66946 -2.10614,-1.65766 -3.87787,-3.0521 -5.6496,-4.44657 1.6961,-1.25232 3.39221,-2.5046 5.55389,-4.10067 0.42121,-15.30722 -15.27972,-41.22229 -44.51944,-44.44904 -1.45855,2.12232 -2.72537,3.96564 -3.99219,5.80896 -1.50491,-1.81396 -3.00979,-3.62796 -4.69656,-5.66113 -12.05914,1.33374 -23.21625,6.09054 -32.54629,16.15167 z"
         id="path2"
         style="fill:#939dac"
         inkscape:label="Compass out" /><path
         fill="#030303"
         opacity="1"
         stroke="none"
         d="m 489.52173,523.53662 c -6.96945,3.93317 -13.63312,7.65241 -21.21179,11.88239 6.72784,-12.60767 12.85339,-24.32575 19.26141,-35.8873 1.23914,-2.23572 3.27594,-4.37512 5.46826,-5.67847 10.98648,-6.53146 22.14697,-12.77014 34.34821,-19.74133 -7.28467,13.20694 -13.19519,25.85473 -20.99311,37.20605 -3.63812,5.29599 -10.9309,8.08145 -16.87298,12.21866 m 10.81314,-20.5918 c -2.37134,0.14811 -4.74268,0.29618 -7.11398,0.44428 0.15762,2.13602 -0.3638,4.76572 0.70663,6.2381 0.7388,1.01626 3.96933,1.10629 5.57245,0.41635 2.93405,-1.26288 3.07806,-3.90058 0.8349,-7.09873 z"
         id="path17"
         inkscape:label="Compass point"
         style="fill:#939dac" /></g></g></g>
</svg>
